<svg width="55" height="55" viewBox="0 0 55 55" fill="none" xmlns="http://www.w3.org/2000/svg">
<g opacity="0.72">
<path d="M8.21777 38.6182C8.21777 39.1224 7.80897 39.5312 7.30469 39.5312C6.8004 39.5312 6.3916 39.1224 6.3916 38.6182C6.3916 38.1139 6.8004 37.7051 7.30469 37.7051C7.80897 37.7051 8.21777 38.1139 8.21777 38.6182Z" fill="#212121"/>
<path d="M33.1331 32.0724C31.7333 32.4273 30.1347 32.6562 28.3593 32.6562C26.5811 32.6562 24.9801 32.4266 23.5786 32.0707L19.8753 39.762C22.2725 40.6133 25.162 41.25 28.3593 41.25C31.5537 41.25 34.4408 40.6145 36.8366 39.7644L33.1331 32.0724Z" fill="#212121"/>
<path d="M10.3543 33.561C10.0937 33.531 9.82881 33.5156 9.56055 33.5156C5.76359 33.5156 2.68555 36.5937 2.68555 40.3906C2.68555 43.8676 5.26661 46.7417 8.61725 47.2014V48.9844C8.61725 50.4082 9.77151 51.5625 11.1954 51.5625H19.7656C21.1895 51.5625 22.3437 50.4082 22.3437 48.9844V46.3675H34.3448V48.9844C34.3448 50.4082 35.499 51.5625 36.9229 51.5625H45.4931C46.917 51.5625 48.0712 50.4082 48.0712 48.9844V47.2253H50.1996C50.9211 47.2253 51.8211 46.785 52.2059 45.9247C52.4274 45.4297 52.3946 44.9013 52.2659 44.4757C52.1362 44.0467 51.8839 43.6322 51.5376 43.3291C51.3416 43.1577 50.4375 42.2966 49.5552 41.4518C49.1202 41.0352 48.6984 40.6302 48.3854 40.3293L47.9746 39.9343C47.1272 29.7223 38.6625 21.9678 28.1982 21.9678C20.0719 21.9678 13.339 26.6734 10.3543 33.561ZM9.71703 35.2367C9.05456 37.2486 8.69783 39.4144 8.69783 41.6797C8.69783 42.4742 8.6776 43.2547 8.65741 44.0336C8.65176 44.2516 8.64611 44.4695 8.64092 44.6875H8.61725V45.4608C6.22001 45.0176 4.4043 42.9162 4.4043 40.3906C4.4043 37.5429 6.71283 35.2344 9.56055 35.2344C9.61291 35.2344 9.66507 35.2352 9.71703 35.2367ZM18.6545 27.7517C19.6359 28.7331 23.0826 30.9375 28.3593 30.9375C33.6361 30.9375 37.0828 28.7331 38.0642 27.7517C38.3998 27.4161 38.9439 27.4161 39.2795 27.7517C39.6151 28.0873 39.6151 28.6314 39.2795 28.967C38.547 29.6995 37.0094 30.766 34.7959 31.5641L38.4413 39.1353C40.7212 38.1538 42.403 37.0428 43.2688 36.3006C43.6292 35.9918 44.1717 36.0335 44.4806 36.3939C44.7895 36.7542 44.7477 37.2967 44.3874 37.6056C42.2534 39.4347 36.1599 42.9688 28.3593 42.9688C20.5588 42.9688 14.4653 39.4347 12.3313 37.6056C11.971 37.2967 11.9292 36.7542 12.2381 36.3939C12.547 36.0335 13.0895 35.9918 13.4499 36.3006C14.3149 37.0421 15.9943 38.1517 18.2709 39.1325L21.9161 31.5617C19.7062 30.7638 18.1709 29.6988 17.4392 28.967C17.1036 28.6314 17.1036 28.0873 17.4392 27.7517C17.7748 27.4161 18.3189 27.4161 18.6545 27.7517ZM48.1317 45.5066V42.4682L48.3665 42.6931C49.2265 43.5167 50.172 44.418 50.4057 44.6226C50.489 44.6955 50.5758 44.8248 50.6207 44.9731C50.6666 45.125 50.6439 45.2075 50.637 45.2228C50.6069 45.29 50.5438 45.3642 50.4431 45.4248C50.3373 45.4884 50.2403 45.5066 50.1996 45.5066H48.1317ZM10.336 46.4062H20.625V48.9844C20.625 49.459 20.2402 49.8438 19.7656 49.8438H11.1954C10.7208 49.8438 10.336 49.459 10.336 48.9844V46.4062ZM36.0635 46.4062H46.3525V48.9844C46.3525 49.459 45.9677 49.8438 45.4931 49.8438H36.9229C36.4483 49.8438 36.0635 49.459 36.0635 48.9844V46.4062Z" fill="#212121"/>
</g>
</svg>
