<svg width="21" height="22" viewBox="0 0 21 22" fill="none" xmlns="http://www.w3.org/2000/svg">
<g clip-path="url(#clip0_463_2828)">
<path d="M20.8572 17.4023L20.0587 15.5511C19.7164 14.7578 19.5739 13.9136 19.5739 12.7337V9.87568C19.5739 5.95982 17.5014 2.44064 14.2787 0.914979C14.0125 0.792926 13.7463 0.681045 13.4896 0.579334C10.7232 -0.498798 7.71917 -0.0512716 5.27598 1.78969C2.77575 3.66116 1.29273 6.72265 1.29273 9.97739V12.8253C1.29273 13.8017 1.13112 14.7476 0.826906 15.663L0.0568739 17.9108C-0.123751 18.4397 0.132926 19.0195 0.627268 19.2127C1.12161 19.406 1.66348 19.1313 1.84411 18.6025L2.61414 16.3445C3.00391 15.2053 3.19404 14.0255 3.19404 12.8151V9.96722C3.19404 7.38377 4.38236 4.94272 6.36923 3.44757C8.30857 1.99311 10.6662 1.63712 12.8622 2.48132C13.0809 2.56269 13.2995 2.65423 13.5182 2.76611C16.0469 3.9663 17.682 6.75317 17.682 9.86551V12.7236C17.682 14.1984 17.8817 15.3274 18.338 16.3852L18.9274 17.7583H4.02111C3.49825 17.7583 3.07045 18.2159 3.07045 18.7754C3.07045 19.3348 3.49825 19.7925 4.02111 19.7925H8.53673C8.53673 19.7925 8.53673 19.8433 8.53673 19.8738C8.53673 21.0435 9.42084 21.9894 10.5141 21.9894C11.6074 21.9894 12.4915 21.0435 12.4915 19.8738C12.4915 19.8433 12.4915 19.823 12.4915 19.7925H19.4408C19.9826 19.7925 20.477 19.4975 20.7717 19.0093C21.0664 18.5211 21.1044 17.921 20.8762 17.3921L20.8572 17.4023ZM10.5806 19.884C10.5806 19.9755 10.419 19.9755 10.419 19.884C10.419 19.8331 10.4571 19.8026 10.4951 19.8026C10.5331 19.8026 10.5711 19.8433 10.5711 19.884H10.5806Z" fill="#FFFCB2"/>
</g>
<defs>
<clipPath id="clip0_463_2828">
<rect width="21" height="22" fill="white"/>
</clipPath>
</defs>
</svg>
