<svg width="366" height="13" viewBox="0 0 366 13" fill="none" xmlns="http://www.w3.org/2000/svg">
<path fill-rule="evenodd" clip-rule="evenodd" d="M-88 0L-99 13H-88.0085L-77.0085 0H-88ZM-74.6005 0L-85.6005 13H-74.6091L-63.6091 0H-74.6005ZM48.4111 13L59.4111 0H70.4025L59.3983 13H48.4111ZM61.8105 13L72.8105 0H83.802L72.802 13H61.8105ZM75.21 13L86.21 0H97.2015L86.2015 13H75.21ZM35.0074 13L46.0074 0H56.9988L45.9988 13H35.0074ZM-47.7974 0L-58.7974 13H-47.8059L-36.8059 0H-47.7974ZM-5.19527 13L5.80473 0H16.7962L5.7962 13H-5.19527ZM-61.1968 0L-72.1968 13H-61.2096L-50.2096 0H-61.1968ZM-18.5947 13L-7.59473 0H3.39674L-7.60326 13H-18.5947ZM19.2084 0L8.20844 13H19.1956L30.1999 0H19.2084ZM21.6079 13L32.6079 0H43.5994L32.5994 13H21.6079ZM143.128 9.07129L150.808 0H143.128H139.816L128.816 13H139.804H139.808L143.128 9.07633V9.07129ZM-31.9942 13L-20.9942 0H-10.0027L-21.007 13H-31.9942ZM126.417 0L115.413 13H126.404L137.404 0H126.417ZM-45.3979 13L-34.3979 0H-23.4064L-34.4064 13H-45.3979ZM113.013 0L102.013 13H113.005L124.005 0H113.013ZM88.6137 13L99.6137 0H110.605L99.6009 13H88.6137ZM287.227 0L276.223 13H287.215L298.215 0H287.227ZM289.627 13L300.627 0H311.618L300.614 13H289.627ZM153.216 0L142.216 13H143.128H153.207L164.207 0H153.216ZM303.026 13L314.026 0H325.018L314.018 13H303.026ZM273.824 0L262.824 13H273.815L284.815 0H273.824ZM169.019 13L180.019 0H191.01L180.006 13H169.019ZM233.621 0L222.621 13H233.613L244.613 0H233.621ZM155.615 13L166.62 0H177.607L166.607 13H155.615ZM220.222 0L209.222 13H220.209L231.213 0H220.222ZM236.021 13L247.025 0H258.012L247.012 13H236.021ZM260.424 0L249.424 13H260.411L271.416 0H260.424ZM195.818 13L206.822 0H217.809L206.809 13H195.818ZM354.229 0L343.229 13H354.22L365.22 0H354.229ZM182.418 13L193.418 0H204.41L193.41 13H182.418ZM340.83 0L329.83 13H340.821L351.821 0H340.83ZM316.426 13L327.43 0H338.417L327.417 13H316.426Z" fill="#FFEEC3"/>
</svg>
