<svg width="187" height="79" viewBox="0 0 187 79" fill="none" xmlns="http://www.w3.org/2000/svg">
<path d="M39.2905 57.5092C28.4879 62.2123 17.9999 67.6079 7.94462 73.7612C8.27236 73.9833 8.65255 74.1662 9.08518 74.3099C9.7669 74.532 10.5797 74.6626 11.5236 74.6757C16.453 73.0688 21.3036 71.279 26.1281 69.3977C33.2992 66.5236 40.4441 63.5841 47.3137 60.0175C48.8738 59.2075 50.4339 58.3584 51.9678 57.4961H39.2642L39.2905 57.5092Z" fill="url(#paint0_linear_463_2834)"/>
<path d="M31.0705 57.5092C27.544 57.5092 25.7872 56.0721 25.7872 53.2502C25.7872 52.9367 25.9183 52.4402 26.1019 51.8131L37.2977 17.4409H23.5192L6.64673 68.9927C6.51563 69.5545 6.46319 70.1163 6.46319 70.6258C6.46319 72.0498 6.97448 73.0949 7.94462 73.7743C17.9868 67.621 28.4879 62.2123 39.2905 57.5222H31.0705V57.5092Z" fill="url(#paint1_linear_463_2834)"/>
<path d="M46.5534 51.8001L57.6837 17.4409H43.8396L32.6962 51.8001H46.5534Z" fill="url(#paint2_linear_463_2834)"/>
<path d="M9.09829 74.3099C8.66566 74.1662 8.28547 73.9833 7.95773 73.7612C6.58118 74.5973 1.35032 77.5237 0 78.399C0 78.399 0.0655496 78.5427 0.131099 78.6995C0.196649 78.8563 0.262199 79 0.262199 79C2.76619 78.3207 9.08518 75.4857 11.5367 74.6888C10.5797 74.6757 9.78 74.5451 9.09829 74.323V74.3099Z" fill="url(#paint3_linear_463_2834)"/>
<path d="M47.3399 60.0306C40.4703 63.5841 33.3254 66.5366 26.1543 69.4108C21.3298 71.3051 16.4792 73.0949 11.5498 74.6888C11.6285 74.6888 11.6809 74.6888 11.7596 74.6888H26.7311L90.5896 51.8001L51.994 57.5092C50.447 58.3714 48.9 59.2075 47.3399 60.0306Z" fill="url(#paint4_linear_463_2834)"/>
<path d="M79.2757 51.8001L84.4935 41.845C88.0332 40.4994 91.586 39.2061 95.1387 37.8996L96.0827 35.0124L97.1577 31.7071C93.736 33.5361 90.3274 35.4043 86.9057 37.2595L97.2888 17.4278H83.5627L72.6159 40.3165L76.7062 17.4278H62.8621L58.7849 50.1409C54.2227 51.7739 49.608 53.3155 45.085 55.0662C43.1448 55.8631 41.2176 56.6731 39.3036 57.5092H52.0071C55.4288 55.6148 58.8242 53.6552 62.259 51.8001H79.2888H79.2757Z" fill="url(#paint5_linear_463_2834)"/>
<path d="M113.598 23.4897L115.525 17.4409H101.812L97.1577 31.7202C97.4068 31.5896 97.6558 31.4458 97.918 31.3152C103.123 28.6631 108.354 26.0503 113.611 23.4897H113.598Z" fill="url(#paint6_linear_463_2834)"/>
<path d="M159.836 57.5092C156.244 57.5092 154.422 56.3203 154.422 53.9296C154.422 53.3678 154.553 52.6101 154.802 51.8001L164.176 23.2022H170.967L172.92 17.4278H142.702C153.045 12.2935 163.166 6.71507 172.999 0.600959L172.723 0C157.817 4.41574 143.436 10.0987 129.185 16.1998C128.281 16.6048 127.389 17.0228 126.498 17.4278H122.42L120.27 24.0645L118.881 28.3757C122.906 26.6643 126.878 24.8875 130.85 23.0585L121.542 51.787H135.386L144.655 23.1892H150.384L139.162 57.4961H109.35C105.823 57.4961 104.067 56.1766 104.067 53.5507C104.067 52.8583 104.132 52.2312 104.316 51.8001H104.355L108.249 39.7025L109.809 34.921L109.783 34.9471L109.887 34.6205H124.099L125.986 28.9114L118.868 28.3888C118.448 28.5717 118.016 28.7415 117.596 28.9114C115.328 29.8651 113.06 30.8188 110.792 31.7333C105.64 33.9673 100.37 35.953 95.0994 37.8996L90.5765 51.787H90.5634L84.9917 68.9927C84.8081 69.3063 84.7426 69.7505 84.7426 70.3122C84.7426 72.0498 85.7914 73.6306 87.7185 74.336L136.212 66.5628L139.057 66.0532L187 57.5222H159.823L159.836 57.5092Z" fill="url(#paint7_linear_463_2834)"/>
<defs>
<linearGradient id="paint0_linear_463_2834" x1="93.5" y1="0" x2="93.5" y2="79" gradientUnits="userSpaceOnUse">
<stop stop-color="white"/>
<stop offset="1" stop-color="#FFFBA3"/>
</linearGradient>
<linearGradient id="paint1_linear_463_2834" x1="93.5" y1="0" x2="93.5" y2="79" gradientUnits="userSpaceOnUse">
<stop stop-color="white"/>
<stop offset="1" stop-color="#FFFBA3"/>
</linearGradient>
<linearGradient id="paint2_linear_463_2834" x1="93.5" y1="0" x2="93.5" y2="79" gradientUnits="userSpaceOnUse">
<stop stop-color="white"/>
<stop offset="1" stop-color="#FFFBA3"/>
</linearGradient>
<linearGradient id="paint3_linear_463_2834" x1="93.5" y1="0" x2="93.5" y2="79" gradientUnits="userSpaceOnUse">
<stop stop-color="white"/>
<stop offset="1" stop-color="#FFFBA3"/>
</linearGradient>
<linearGradient id="paint4_linear_463_2834" x1="93.5" y1="0" x2="93.5" y2="79" gradientUnits="userSpaceOnUse">
<stop stop-color="white"/>
<stop offset="1" stop-color="#FFFBA3"/>
</linearGradient>
<linearGradient id="paint5_linear_463_2834" x1="93.5" y1="0" x2="93.5" y2="79" gradientUnits="userSpaceOnUse">
<stop stop-color="white"/>
<stop offset="1" stop-color="#FFFBA3"/>
</linearGradient>
<linearGradient id="paint6_linear_463_2834" x1="93.5" y1="0" x2="93.5" y2="79" gradientUnits="userSpaceOnUse">
<stop stop-color="white"/>
<stop offset="1" stop-color="#FFFBA3"/>
</linearGradient>
<linearGradient id="paint7_linear_463_2834" x1="93.5" y1="0" x2="93.5" y2="79" gradientUnits="userSpaceOnUse">
<stop stop-color="white"/>
<stop offset="1" stop-color="#FFFBA3"/>
</linearGradient>
</defs>
</svg>
