<svg width="22" height="22" viewBox="0 0 22 22" fill="none" xmlns="http://www.w3.org/2000/svg">
<g clip-path="url(#clip0_463_2830)">
<path d="M8.82277 0C3.95602 0 0 3.93903 0 8.78489C0 13.6307 3.95602 17.5698 8.82277 17.5698C13.6895 17.5698 17.6455 13.6307 17.6455 8.78489C17.6455 3.93903 13.68 0 8.82277 0ZM8.82277 15.6711C5.00906 15.6711 1.89737 12.5822 1.89737 8.77544C1.89737 4.96866 4.99957 1.87978 8.82277 1.87978C12.646 1.87978 15.7482 4.96866 15.7482 8.77544C15.7482 12.5822 12.646 15.6711 8.82277 15.6711Z" fill="#FFFCB2"/>
<path d="M21.7154 20.3946L16.934 15.6337C16.564 15.2653 15.9663 15.2653 15.5963 15.6337C15.2264 16.0021 15.2264 16.5972 15.5963 16.9656L20.3777 21.7265C20.5674 21.9154 20.8046 22.0004 21.0513 22.0004C21.2979 22.0004 21.5351 21.9059 21.7248 21.7265C22.0948 21.3581 22.0948 20.763 21.7248 20.3946H21.7154Z" fill="#FFFCB2"/>
</g>
<defs>
<clipPath id="clip0_463_2830">
<rect width="22" height="22" fill="white"/>
</clipPath>
</defs>
</svg>
