<svg width="375" height="13" viewBox="0 0 375 13" fill="none" xmlns="http://www.w3.org/2000/svg">
<path fill-rule="evenodd" clip-rule="evenodd" d="M11 0L0 13H10.9915L21.9915 0H11ZM24.3995 0L13.3995 13H24.3909L35.3909 0H24.3995ZM147.411 13L158.411 0H169.403L158.398 13H147.411ZM160.811 13L171.811 0H182.802L171.802 13H160.811ZM174.21 13L185.21 0H196.201L185.201 13H174.21ZM134.007 13L145.007 0H155.999L144.999 13H134.007ZM51.2026 0L40.2026 13H51.1941L62.1941 0H51.2026ZM93.8047 13L104.805 0H115.796L104.796 13H93.8047ZM37.8032 0L26.8032 13H37.7904L48.7904 0H37.8032ZM80.4053 13L91.4053 0H102.397L91.3967 13H80.4053ZM118.208 0L107.208 13H118.196L129.2 0H118.208ZM120.608 13L131.608 0H142.599L131.599 13H120.608ZM242.128 9.07129L249.808 0H242.128H238.816L227.816 13H238.804H238.808L242.128 9.07633V9.07129ZM67.0058 13L78.0058 0H88.9973L77.993 13H67.0058ZM225.417 0L214.413 13H225.404L236.404 0H225.417ZM53.6021 13L64.6021 0H75.5936L64.5936 13H53.6021ZM212.013 0L201.013 13H212.005L223.005 0H212.013ZM187.614 13L198.614 0H209.605L198.601 13H187.614ZM386.227 0L375.223 13H386.215L397.215 0H386.227ZM388.627 13L399.627 0H410.618L399.614 13H388.627ZM252.216 0L241.216 13H242.128H252.207L263.207 0H252.216ZM402.026 13L413.026 0H424.018L413.018 13H402.026ZM372.824 0L361.824 13H372.815L383.815 0H372.824ZM268.019 13L279.019 0H290.01L279.006 13H268.019ZM332.621 0L321.621 13H332.613L343.613 0H332.621ZM254.615 13L265.62 0H276.607L265.607 13H254.615ZM319.222 0L308.222 13H319.209L330.213 0H319.222ZM335.021 13L346.025 0H357.012L346.012 13H335.021ZM359.424 0L348.424 13H359.411L370.416 0H359.424ZM294.818 13L305.822 0H316.809L305.809 13H294.818ZM453.229 0L442.229 13H453.22L464.22 0H453.229ZM281.418 13L292.418 0H303.41L292.41 13H281.418ZM439.83 0L428.83 13H439.821L450.821 0H439.83ZM415.426 13L426.43 0H437.417L426.417 13H415.426Z" fill="#FFEEC3"/>
</svg>
