<svg width="42" height="37" viewBox="0 0 42 37" fill="none" xmlns="http://www.w3.org/2000/svg">
<path d="M21.8537 5.65123C21.8534 5.65068 21.8531 5.65014 21.8528 5.6496L21.8537 5.65123ZM37.8892 19.2086L21.0074 35.6198L4.11077 19.1942L4.10755 19.1911C2.5877 17.7268 1.54503 15.8692 1.18499 13.85C0.96511 12.5795 0.898571 11.0661 1.22494 9.44009L1.22499 9.43985C2.25578 4.2977 7.0407 0.504555 12.3598 1.05299L12.3651 1.05351C14.9952 1.31047 17.9095 2.63873 20.0989 6.61065C20.2981 6.97917 20.6716 7.15522 21.013 7.15522C21.1929 7.15522 21.4403 7.10619 21.6633 6.92361C21.7881 6.82142 21.8819 6.69597 21.9443 6.55948C24.1287 2.6305 27.0284 1.32261 29.6538 1.0531C34.9587 0.518316 39.7442 4.3119 40.775 9.45424L40.7751 9.45449C41.1014 11.0806 41.035 12.5803 40.8145 13.8673C40.4699 15.8643 39.4167 17.7236 37.8892 19.2086Z" fill="#FB8500" stroke="#FB8500" stroke-width="2" stroke-miterlimit="10"/>
</svg>
