<svg width="26" height="26" viewBox="0 0 26 26" fill="none" xmlns="http://www.w3.org/2000/svg">
<g clip-path="url(#clip0_463_2786)">
<g clip-path="url(#clip1_463_2786)">
<g clip-path="url(#clip2_463_2786)">
<path d="M18.1292 21.5945H6.775C6.14702 21.5937 5.545 21.3439 5.10095 20.8998C4.65691 20.4558 4.40708 19.8538 4.40625 19.2258V13.6685C4.40708 13.0405 4.65691 12.4385 5.10095 11.9945C5.545 11.5504 6.14702 11.3006 6.775 11.2997H8.65L11.6177 4.6237C11.6791 4.48574 11.7792 4.36854 11.9058 4.28627C12.0325 4.204 12.1802 4.1602 12.3313 4.16016C12.7466 4.15934 13.1581 4.24036 13.5422 4.3986C13.9263 4.55684 14.2754 4.78919 14.5697 5.08238C14.8639 5.37558 15.0976 5.72387 15.2572 6.10737C15.4168 6.49087 15.4993 6.90206 15.5 7.31745V9.71329H19.2083C19.5507 9.71094 19.8895 9.78285 20.2014 9.92405C20.5133 10.0652 20.7909 10.2724 21.0151 10.5312C21.2392 10.79 21.4046 11.0943 21.4998 11.4232C21.5951 11.7521 21.6179 12.0977 21.5667 12.4362L20.4708 19.582C20.3836 20.1412 20.1 20.6509 19.6708 21.0197C19.2416 21.3886 18.6951 21.5924 18.1292 21.5945ZM9.93854 20.032H18.1302C18.3228 20.0311 18.5088 19.9616 18.6548 19.836C18.8009 19.7104 18.8974 19.5369 18.9271 19.3466L20.0229 12.2008C20.0403 12.0853 20.0323 11.9675 19.9997 11.8554C19.967 11.7433 19.9104 11.6396 19.8337 11.5515C19.757 11.4635 19.6621 11.3931 19.5556 11.3453C19.4491 11.2975 19.3334 11.2734 19.2167 11.2747H14.7135C14.5063 11.2747 14.3076 11.1924 14.1611 11.0459C14.0146 10.8994 13.9323 10.7007 13.9323 10.4935V7.31745C13.9319 6.97629 13.8227 6.64414 13.6206 6.36931C13.4184 6.09448 13.1339 5.8913 12.8083 5.78933L9.9375 12.2466L9.93854 20.032ZM6.775 12.8622C6.56125 12.8625 6.35634 12.9476 6.2052 13.0987C6.05406 13.2498 5.96903 13.4548 5.96875 13.6685V19.2258C5.96903 19.4395 6.05406 19.6444 6.2052 19.7956C6.35634 19.9467 6.56125 20.0318 6.775 20.032H8.375V12.8622H6.775Z" fill="#D5D5D5"/>
</g>
</g>
</g>
<defs>
<clipPath id="clip0_463_2786">
<rect width="25" height="25" fill="white" transform="translate(0.5 0.769531)"/>
</clipPath>
<clipPath id="clip1_463_2786">
<rect width="25" height="25" fill="white" transform="translate(0.5 0.769531)"/>
</clipPath>
<clipPath id="clip2_463_2786">
<rect width="25" height="25" fill="white" transform="translate(0.5 0.769531)"/>
</clipPath>
</defs>
</svg>
